<?xml version="1.0" encoding="UTF-8" standalone="no"?>
<!-- Created with Inkscape (http://www.inkscape.org/) -->
<svg
   xmlns:dc="http://purl.org/dc/elements/1.1/"
   xmlns:cc="http://web.resource.org/cc/"
   xmlns:rdf="http://www.w3.org/1999/02/22-rdf-syntax-ns#"
   xmlns:svg="http://www.w3.org/2000/svg"
   xmlns="http://www.w3.org/2000/svg"
   xmlns:xlink="http://www.w3.org/1999/xlink"
   xmlns:sodipodi="http://sodipodi.sourceforge.net/DTD/sodipodi-0.dtd"
   xmlns:inkscape="http://www.inkscape.org/namespaces/inkscape"
   width="300"
   height="100"
   id="svg2"
   sodipodi:version="0.32"
   inkscape:version="0.45.1"
   version="1.0"
   sodipodi:docbase="/home/frew/svg"
   sodipodi:docname="tome.svg"
   inkscape:output_extension="org.inkscape.output.svg.inkscape">
  <defs
     id="defs4">
    <linearGradient
       id="linearGradient4161">
      <stop
         style="stop-color:#000000;stop-opacity:1;"
         offset="0"
         id="stop4163" />
      <stop
         style="stop-color:#ffffff;stop-opacity:0;"
         offset="1"
         id="stop4165" />
    </linearGradient>
  </defs>
  <sodipodi:namedview
     id="base"
     pagecolor="#ffffff"
     bordercolor="#666666"
     borderopacity="1.0"
     gridtolerance="10000"
     guidetolerance="10"
     objecttolerance="10"
     inkscape:pageopacity="1"
     inkscape:pageshadow="2"
     inkscape:zoom="1"
     inkscape:cx="150"
     inkscape:cy="50"
     inkscape:document-units="px"
     inkscape:current-layer="layer1"
     width="300px"
     height="100px"
     inkscape:window-width="1279"
     inkscape:window-height="972"
     inkscape:window-x="1280"
     inkscape:window-y="1" />
  <metadata
     id="metadata7">
    <rdf:RDF>
      <cc:Work
         rdf:about="">
        <dc:format>image/svg+xml</dc:format>
        <dc:type
           rdf:resource="http://purl.org/dc/dcmitype/StillImage" />
      </cc:Work>
    </rdf:RDF>
  </metadata>
  <g
     inkscape:label="Layer 1"
     inkscape:groupmode="layer"
     id="layer1">
    <image
       y="0"
       x="0"
       id="image4353"
       height="100"
       width="100"
       sodipodi:absref="/home/frew/tome41.png"
       xlink:href="/home/frew/tome41.png" />
    <g
       id="g4462"
       transform="translate(9,4)">
      <path
         id="path4364"
         d="M 181.37463,82.392387 C 181.37463,81.988846 184.52924,73.453078 188.38487,63.424 C 192.24051,53.394932 195.39511,43.967915 195.39511,42.475068 C 195.39511,38.673533 190.93019,34.425736 187.79587,35.245373 C 184.02913,36.230399 186.21106,33.649152 190.74733,31.753777 C 192.85531,30.872999 194.98904,30.152368 195.48894,30.152368 C 195.98884,30.152368 199.81888,37.068694 204.00014,45.521989 C 208.18142,53.975283 212.74257,62.321451 214.13605,64.069039 L 216.66964,67.246469 L 219.69814,62.450277 C 221.36382,59.812377 224.87855,53.540821 227.50865,48.513496 C 231.67247,40.554532 232.20897,38.776928 231.65875,34.762637 C 231.04041,30.251396 231.09385,30.152368 234.1469,30.152368 C 236.9839,30.152368 237.33329,30.568227 237.998,34.735988 C 239.12405,41.796358 244.94001,64.569085 246.72129,68.892538 C 247.59609,71.015833 249.06836,73.324327 249.993,74.022525 C 251.4449,75.118873 251.20583,75.534182 248.23988,77.067925 C 246.35103,78.044689 244.67378,78.686741 244.51266,78.494715 C 243.13653,76.854501 241.49762,71.869777 238.54706,60.350332 C 236.64787,52.935654 234.86929,46.149017 234.59466,45.268919 C 234.13868,43.807683 217.83389,70.058827 216.35179,74.640441 C 215.33883,77.771765 213.17058,76.773592 211.66634,72.483443 C 209.76654,67.065173 199.77136,48.486846 198.75612,48.486846 C 198.31294,48.486846 194.58942,56.05286 190.48164,65.30021 C 183.88439,80.151774 181.37463,84.862139 181.37463,82.392387 z "
         style="fill:#000000" />
      <path
         id="path4362"
         d="M 261.02289,54.958152 L 261.40149,32.309366 L 258.59627,32.309366 C 257.05339,32.309366 255.79104,31.824041 255.79104,31.230867 C 255.79104,30.56484 261.38965,30.152368 270.42985,30.152368 C 283.74202,30.152368 285.03601,30.321919 284.70837,32.023294 C 284.39672,33.641473 283.23344,33.847693 276.0969,33.549866 L 267.84574,33.205512 L 267.10188,40.151561 C 265.91112,51.270732 265.69511,51.016692 276.10564,50.740445 C 284.27869,50.523581 285.06198,50.67992 284.72171,52.460241 C 284.40219,54.131946 283.04681,54.464436 275.46172,54.731829 L 266.57603,55.045068 L 266.57603,64.102613 L 266.57603,73.160147 L 271.51975,73.901507 C 274.2388,74.309255 280.07251,74.411249 284.48356,74.128164 C 292.23482,73.630718 292.44311,73.680393 290.69693,75.609892 C 289.11389,77.359131 287.14163,77.606355 274.76724,77.606625 L 260.64429,77.606938 L 261.02289,54.958152 z "
         style="fill:#000000" />
      <path
         id="path4360"
         d="M 95.633982,55.240319 L 95.633982,33.927114 L 88.243851,33.6057 C 82.948321,33.375386 80.131525,33.757487 78.305683,34.953823 C 74.800016,37.25082 74.603257,37.138948 74.603257,32.848615 L 74.603257,29.073869 L 98.330229,29.073869 C 111.38006,29.073869 122.0572,29.498528 122.0572,30.017556 C 122.0572,31.128787 116.77934,32.309366 111.81146,32.309366 C 109.88365,32.309366 106.77876,32.614883 104.91171,32.988291 L 101.5171,33.667217 L 101.81103,52.670893 C 102.10384,71.601188 102.11435,71.674235 104.5316,71.588936 C 108.38259,71.453035 107.35731,72.831324 102.53196,74.27703 C 100.09753,75.006408 97.549579,75.816996 96.869845,76.078349 C 95.966688,76.425604 95.633982,70.815825 95.633982,55.240319 z "
         style="fill:#000000" />
      <path
         id="path4358"
         d="M 140.52854,74.912503 C 131.18378,71.997914 125.35785,63.413085 125.31638,52.496575 C 125.28695,44.745933 127.10612,40.265289 132.35017,35.172338 C 141.91678,25.881362 161.23828,25.651817 170.51238,34.718958 C 175.85841,39.945697 177.4567,43.86136 177.45282,51.722343 C 177.44869,60.086305 174.66964,66.323317 169.03048,70.62451 C 161.74264,76.183211 150.18003,77.922754 140.52854,74.912503 z "
         style="fill:#000000" />
      <path
         id="path4281"
         d="M 159.46482,72.14198 C 167.01639,69.280766 170.98667,62.613249 170.98183,52.800841 C 170.97272,34.35627 154.82856,24.606215 140.03739,34.112335 C 127.63635,42.082344 129.55399,65.754657 143.08793,71.769865 C 147.02302,73.518823 155.33259,73.707636 159.46482,72.14198 z "
         style="fill:#ffffff;fill-opacity:1;stroke:#ff8200;stroke-width:1.07849872;stroke-opacity:1" />
      <g
         transform="matrix(8.4132799e-2,0,0,8.4132799e-2,130.32799,29.659619)"
         id="g2701">
        <path
           sodipodi:type="arc"
           style="fill:none;fill-opacity:1;fill-rule:nonzero;stroke:#ff8000;stroke-width:15;stroke-miterlimit:4;stroke-dasharray:none;stroke-opacity:1"
           id="path2190"
           sodipodi:cx="129.7123"
           sodipodi:cy="214.0377"
           sodipodi:rx="46.378963"
           sodipodi:ry="46.378963"
           d="M 176.09126 214.0377 A 46.378963 46.378963 0 1 1  83.333332,214.0377 A 46.378963 46.378963 0 1 1  176.09126 214.0377 z"
           transform="translate(33.91667,158.2342)" />
        <g
           id="g2305"
           transform="translate(-282.5842,167.379)">
          <path
             transform="translate(316.5009,-159.5218)"
             d="M 176.09126 214.0377 A 46.378963 46.378963 0 1 1  83.333332,214.0377 A 46.378963 46.378963 0 1 1  176.09126 214.0377 z"
             sodipodi:ry="46.378963"
             sodipodi:rx="46.378963"
             sodipodi:cy="214.0377"
             sodipodi:cx="129.7123"
             id="path2196"
             style="fill:none;fill-opacity:1;fill-rule:nonzero;stroke:#ff8000;stroke-width:15;stroke-miterlimit:4;stroke-dasharray:none;stroke-opacity:1"
             sodipodi:type="arc" />
          <rect
             y="104.11909"
             x="438.86703"
             height="31.25"
             width="15"
             id="rect2204"
             style="fill:#ff8000;fill-opacity:1;fill-rule:nonzero;stroke:none;stroke-width:15;stroke-miterlimit:4;stroke-dasharray:none;stroke-opacity:1" />
          <rect
             y="120.84925"
             x="392.37701"
             height="15"
             width="107.7575"
             id="rect2206"
             style="fill:#ff8000;fill-opacity:1;fill-rule:nonzero;stroke:none;stroke-width:15;stroke-miterlimit:4;stroke-dasharray:none;stroke-opacity:1" />
        </g>
        <g
           id="g2697">
          <rect
             y="136.28574"
             x="109.75"
             height="15"
             width="107.7575"
             id="rect2239"
             style="fill:#ff8000;fill-opacity:1;fill-rule:nonzero;stroke:none;stroke-width:15;stroke-miterlimit:4;stroke-dasharray:none;stroke-opacity:1" />
          <rect
             transform="matrix(0.676283,0.736642,-0.736642,0.676283,0,0)"
             y="-37.540741"
             x="161.22432"
             height="15.000008"
             width="63.966396"
             id="rect2241"
             style="fill:#ff8000;fill-opacity:1;fill-rule:nonzero;stroke:none;stroke-width:15;stroke-miterlimit:4;stroke-dasharray:none;stroke-opacity:1" />
        </g>
      </g>
      <g
         transform="matrix(8.4132799e-2,0,0,8.4132799e-2,130.32799,29.659619)"
         id="g2287">
        <g
           id="g2540"
           transform="translate(85.42857,287.6508)">
          <rect
             y="-1.6408875"
             x="175"
             height="15"
             width="150"
             id="rect2323"
             style="fill:#ff8000;fill-opacity:1;fill-rule:nonzero;stroke:none;stroke-width:15;stroke-miterlimit:4;stroke-dasharray:none;stroke-opacity:1" />
          <rect
             y="12.62498"
             x="242.5"
             height="120"
             width="15"
             id="rect2349"
             style="fill:#ff8000;fill-opacity:1;fill-rule:nonzero;stroke:none;stroke-width:15;stroke-miterlimit:4;stroke-dasharray:none;stroke-opacity:1" />
        </g>
        <g
           id="g2283">
          <path
             id="rect2355"
             d="M 361.90625,91.96875 L 267.1875,263.59375 L 284.3125,263.59375 L 379.03125,91.96875 L 361.90625,91.96875 z "
             style="fill:#ff8000;fill-opacity:1;fill-rule:nonzero;stroke:none;stroke-width:15;stroke-miterlimit:4;stroke-dasharray:none;stroke-opacity:1" />
          <path
             id="rect2357"
             d="M 330.90625,163.25 L 318.1875,171.21875 L 376.15625,263.59375 L 393.90625,263.59375 L 330.90625,163.25 z "
             style="fill:#ff8000;fill-opacity:1;fill-rule:nonzero;stroke:none;stroke-width:15;stroke-miterlimit:4;stroke-dasharray:none;stroke-opacity:1" />
        </g>
      </g>
    </g>
  </g>
</svg>
